<svg id="svg" version="1.1" xmlns="http://www.w3.org/2000/svg" xmlns:xlink="http://www.w3.org/1999/xlink" width="400" height="380" viewBox="0, 0, 400,380"><g id="svgg"><path id="path0" d="M167.871 54.218 C 165.606 54.437,160.880 55.119,158.935 55.509 C 157.994 55.697,156.027 56.048,154.563 56.288 C 151.627 56.771,151.225 56.879,146.008 58.591 C 142.082 59.880,140.163 61.082,139.207 62.852 C 138.132 64.844,136.536 66.066,133.311 67.366 C 130.339 68.564,125.095 73.311,125.095 74.804 C 125.095 75.972,122.909 79.275,120.744 81.377 C 117.349 84.673,116.210 87.566,113.713 99.240 C 111.596 109.134,112.557 129.731,115.394 135.267 C 116.179 136.798,116.959 139.136,117.329 141.065 C 118.195 145.588,118.466 146.073,121.067 147.751 C 124.294 149.834,127.755 153.412,129.006 155.959 C 130.093 158.172,131.219 159.111,133.979 160.109 C 134.739 160.384,135.361 160.746,135.361 160.913 C 135.361 161.080,135.586 161.217,135.860 161.217 C 136.134 161.217,136.706 161.541,137.131 161.937 C 137.556 162.333,138.401 162.920,139.009 163.243 C 139.617 163.565,140.579 164.269,141.147 164.808 C 141.715 165.346,143.512 166.406,145.139 167.162 C 146.767 167.919,149.040 169.004,150.190 169.574 C 151.340 170.144,153.479 170.797,154.943 171.026 C 156.407 171.255,158.736 171.623,160.120 171.843 C 163.453 172.373,181.373 172.357,184.879 171.820 C 189.719 171.079,192.938 170.315,193.916 169.674 C 194.439 169.332,196.407 168.273,198.289 167.320 C 201.147 165.872,203.800 164.167,205.917 162.414 C 206.140 162.231,206.739 161.860,207.248 161.591 C 207.758 161.323,208.260 160.997,208.365 160.867 C 208.470 160.737,209.667 160.069,211.027 159.382 C 213.330 158.218,215.589 155.726,215.589 154.349 C 215.589 154.153,215.724 153.992,215.888 153.992 C 216.052 153.992,216.474 153.522,216.826 152.947 C 217.683 151.547,221.123 147.909,221.590 147.909 C 223.076 147.909,226.616 142.642,226.616 140.431 C 226.616 139.238,227.084 137.531,227.952 135.551 C 228.496 134.313,229.718 130.965,230.729 127.947 C 231.273 126.322,231.360 124.356,231.325 114.422 C 231.282 102.184,231.226 101.658,229.275 95.057 C 228.688 93.070,228.002 90.333,227.752 88.973 C 227.077 85.305,226.510 84.341,223.353 81.494 C 220.546 78.961,219.978 78.143,218.953 75.153 C 218.470 73.743,213.417 68.441,212.556 68.441 C 212.204 68.441,207.636 66.486,206.489 65.843 C 206.190 65.676,205.762 65.208,205.539 64.803 C 205.316 64.399,205.048 63.983,204.943 63.878 C 204.838 63.774,204.496 63.202,204.183 62.607 C 203.574 61.455,202.826 60.952,199.810 59.667 C 198.764 59.222,197.224 58.552,196.388 58.179 C 194.579 57.371,192.759 56.890,189.163 56.269 C 187.700 56.016,185.048 55.466,183.270 55.046 C 180.130 54.305,171.676 53.850,167.871 54.218 M115.019 204.617 C 113.764 204.751,111.283 204.885,109.506 204.916 C 105.055 204.992,101.561 205.727,99.975 206.922 C 99.257 207.463,97.472 208.309,96.009 208.801 C 93.693 209.580,92.904 210.119,89.908 212.968 C 88.016 214.768,85.791 216.534,84.964 216.893 C 81.681 218.317,77.186 220.676,77.186 220.976 C 77.186 221.150,76.947 221.293,76.654 221.293 C 75.960 221.293,73.384 223.872,73.384 224.568 C 73.384 225.357,70.977 229.182,69.942 230.038 C 69.815 230.143,68.707 232.324,67.479 234.886 C 66.252 237.448,65.110 239.544,64.943 239.544 C 64.776 239.544,64.639 239.758,64.638 240.019 C 64.638 240.280,64.194 241.008,63.652 241.635 C 60.825 244.906,60.837 244.755,60.837 277.554 C 60.837 313.580,60.171 310.879,69.186 311.450 C 75.885 311.874,214.837 311.853,219.981 311.427 C 224.797 311.028,226.161 310.551,226.473 309.155 C 226.594 308.616,226.856 307.521,227.056 306.722 C 227.271 305.865,227.384 297.203,227.331 285.619 C 227.228 263.126,227.930 255.513,230.108 255.513 C 230.279 255.513,230.418 255.262,230.418 254.955 C 230.418 254.647,230.739 253.825,231.131 253.127 C 231.522 252.430,232.241 250.671,232.728 249.218 C 233.594 246.635,235.200 244.521,237.072 243.503 C 237.490 243.275,239.715 242.097,242.015 240.885 C 244.316 239.672,246.540 238.313,246.958 237.863 C 250.147 234.439,252.083 230.668,252.105 227.841 C 252.122 225.595,252.875 222.406,253.938 220.078 C 255.873 215.839,252.603 208.094,248.836 207.995 C 248.614 207.990,248.090 207.666,247.671 207.276 C 246.170 205.878,245.175 205.700,235.675 205.136 C 225.588 204.537,120.015 204.082,115.019 204.617 M300.190 204.779 C 296.475 205.286,293.515 205.786,292.015 206.161 C 290.108 206.637,285.145 209.859,284.276 211.186 C 283.967 211.657,282.990 212.712,282.105 213.530 C 278.122 217.213,277.661 217.815,277.394 219.678 C 277.078 221.877,276.655 223.568,275.391 227.683 C 274.315 231.185,274.256 241.220,275.285 245.437 C 276.858 251.879,277.107 252.252,280.277 252.889 C 285.749 253.988,288.276 249.533,288.384 238.593 C 288.440 232.915,288.733 231.952,291.693 227.698 C 292.079 227.143,292.395 226.572,292.395 226.430 C 292.395 225.449,294.927 221.346,295.942 220.680 C 303.600 215.661,311.645 217.979,313.899 225.856 C 314.049 226.378,314.284 226.892,314.422 226.996 C 315.996 228.189,316.414 230.182,316.381 236.318 L 316.347 242.446 318.458 246.701 C 321.188 252.205,322.525 253.047,327.772 252.571 C 330.833 252.294,331.816 251.411,332.543 248.289 C 333.305 245.017,333.287 233.984,332.512 229.175 C 332.201 227.245,331.758 224.511,331.528 223.100 C 331.298 221.689,330.954 220.439,330.764 220.321 C 330.574 220.203,330.418 219.809,330.418 219.443 C 330.418 219.078,329.862 218.158,329.183 217.399 C 328.503 216.639,326.686 214.571,325.145 212.802 C 323.604 211.033,321.893 209.354,321.342 209.071 C 320.792 208.788,320.257 208.457,320.152 208.335 C 318.231 206.102,306.198 203.958,300.190 204.779 " stroke="none" fill="#6b8c86" fill-rule="evenodd"></path><path id="path1" d="M0.000 190.114 L 0.000 380.228 200.000 380.228 L 400.000 380.228 400.000 190.114 L 400.000 0.000 200.000 0.000 L 0.000 0.000 0.000 190.114 M181.137 47.542 C 186.762 48.355,194.118 51.091,196.840 53.381 C 197.488 53.926,198.370 54.373,198.801 54.373 C 200.133 54.373,204.880 55.737,205.323 56.247 C 206.326 57.402,210.229 59.331,212.626 59.857 C 214.092 60.178,215.285 61.429,216.763 64.195 C 217.471 65.519,218.503 66.870,219.056 67.197 C 219.610 67.524,220.532 68.665,221.106 69.732 C 221.681 70.800,222.261 71.759,222.397 71.863 C 222.532 71.968,223.233 72.823,223.954 73.764 C 224.676 74.705,225.364 75.561,225.484 75.665 C 225.604 75.770,226.116 76.454,226.622 77.186 C 227.128 77.918,227.788 78.770,228.089 79.079 C 228.390 79.389,228.978 80.415,229.394 81.361 C 229.811 82.306,230.537 83.593,231.007 84.221 C 232.123 85.710,233.840 92.399,233.840 95.258 C 233.840 96.535,234.023 97.112,235.461 100.379 C 236.194 102.043,236.560 115.526,235.918 117.200 C 235.808 117.486,235.562 119.936,235.372 122.644 C 235.182 125.351,234.842 128.337,234.616 129.278 C 234.390 130.219,234.114 131.673,234.004 132.510 C 233.773 134.261,233.066 136.896,232.678 137.452 C 232.532 137.662,232.282 138.258,232.122 138.778 C 231.962 139.298,231.429 140.331,230.938 141.072 C 230.448 141.814,229.931 143.271,229.790 144.309 C 229.333 147.674,226.662 151.543,224.273 152.301 C 223.889 152.423,223.574 152.662,223.574 152.833 C 223.574 153.004,223.238 153.231,222.826 153.339 C 222.415 153.446,221.773 154.194,221.400 154.999 C 221.027 155.805,220.594 156.521,220.437 156.591 C 220.280 156.660,220.152 156.901,220.152 157.126 C 220.152 157.639,217.246 161.492,215.973 162.667 C 214.944 163.616,212.805 164.696,210.597 165.380 C 209.092 165.847,206.540 168.148,205.079 170.356 C 204.570 171.125,203.689 171.981,203.122 172.258 C 201.389 173.105,199.469 173.752,198.669 173.760 C 198.251 173.764,197.310 174.135,196.578 174.584 C 195.075 175.506,193.959 175.834,189.354 176.711 C 180.244 178.446,148.669 177.024,148.669 174.879 C 148.669 174.515,146.995 173.934,144.297 173.361 C 140.696 172.597,137.742 170.467,135.857 167.277 C 135.513 166.694,134.533 165.926,133.680 165.571 C 130.079 164.074,128.958 163.349,126.780 161.108 C 124.456 158.717,122.433 155.684,122.433 154.590 C 122.433 154.261,122.170 153.992,121.848 153.992 C 118.534 153.992,115.440 150.264,114.434 145.057 C 114.151 143.593,113.547 141.882,113.091 141.255 C 111.794 139.467,110.777 136.273,110.064 131.739 C 109.703 129.444,109.259 126.625,109.079 125.475 C 107.263 113.927,107.251 108.907,109.023 101.711 C 109.543 99.597,110.070 96.721,111.079 90.494 C 111.613 87.196,112.144 85.604,113.194 84.151 C 113.675 83.485,114.068 82.827,114.068 82.688 C 114.068 81.243,117.619 75.512,119.979 73.146 C 121.466 71.656,122.956 69.860,123.292 69.154 C 123.627 68.448,124.439 67.357,125.095 66.730 C 125.751 66.103,126.551 65.037,126.872 64.363 C 127.753 62.508,130.081 60.620,132.636 59.689 C 133.895 59.230,135.237 58.568,135.618 58.219 C 137.905 56.125,142.147 54.373,144.930 54.373 C 145.732 54.373,146.388 54.213,146.388 54.018 C 146.388 53.823,146.729 53.555,147.146 53.423 C 147.563 53.290,148.119 52.975,148.382 52.722 C 152.402 48.851,170.449 45.997,181.137 47.542 M177.857 199.675 C 225.662 199.672,229.376 199.753,235.551 200.927 C 237.224 201.246,239.307 201.509,240.180 201.513 C 241.660 201.520,242.885 201.716,247.719 202.715 C 250.098 203.207,252.346 204.214,253.720 205.404 C 254.303 205.908,255.415 206.550,256.192 206.831 C 260.051 208.227,261.304 210.019,261.516 214.449 C 261.646 217.142,261.501 217.983,260.010 223.194 C 259.800 223.926,259.456 225.380,259.245 226.426 C 258.867 228.294,257.762 232.361,256.920 234.981 C 255.934 238.046,249.555 244.716,246.743 245.623 C 245.816 245.921,244.971 246.263,244.867 246.382 C 244.762 246.500,243.928 247.181,243.012 247.894 C 242.096 248.607,241.127 249.715,240.859 250.356 C 240.591 250.997,239.995 251.949,239.534 252.471 C 239.074 252.994,238.252 254.021,237.708 254.753 C 237.164 255.485,236.107 256.769,235.358 257.606 C 234.234 258.863,233.911 259.623,233.497 261.978 C 233.222 263.546,232.852 265.342,232.675 265.970 C 231.561 269.925,231.049 287.657,231.656 301.252 L 232.060 310.299 230.764 311.627 C 230.051 312.357,228.568 313.546,227.469 314.269 L 225.471 315.583 147.431 315.592 C 82.571 315.600,69.135 315.690,67.871 316.120 C 62.881 317.820,59.836 315.549,57.582 308.447 C 55.697 302.508,55.473 248.968,57.316 244.867 C 58.441 242.363,58.875 241.059,59.150 239.354 C 59.770 235.505,60.694 233.647,63.363 230.886 C 65.996 228.161,66.738 227.017,67.486 224.525 C 68.077 222.560,69.193 220.417,69.962 219.772 C 70.087 219.667,70.600 218.983,71.103 218.251 C 72.348 216.439,73.535 215.445,75.150 214.861 C 76.317 214.439,78.344 213.273,79.658 212.267 C 79.867 212.107,80.851 211.565,81.844 211.061 C 82.837 210.558,83.650 210.045,83.650 209.921 C 83.650 209.796,84.420 209.286,85.361 208.787 C 86.302 208.288,87.072 207.750,87.072 207.593 C 87.072 207.436,87.742 207.039,88.561 206.711 C 89.380 206.384,90.157 205.942,90.288 205.730 C 90.766 204.956,93.368 204.011,97.338 203.168 C 97.861 203.057,99.401 202.658,100.760 202.281 C 102.120 201.904,104.686 201.402,106.464 201.166 C 109.672 200.739,111.923 200.345,115.209 199.634 C 116.165 199.427,119.604 199.356,123.004 199.471 C 126.350 199.585,151.034 199.677,177.857 199.675 M310.076 200.561 C 311.749 201.155,313.415 201.786,313.778 201.962 C 314.141 202.137,314.997 202.281,315.679 202.281 C 317.102 202.281,320.947 203.077,323.845 203.972 C 326.330 204.739,331.939 210.297,331.939 211.992 C 331.939 212.294,333.702 216.523,334.292 217.638 C 334.501 218.032,334.973 218.891,335.341 219.545 C 335.974 220.674,336.940 223.311,338.033 226.901 C 338.303 227.790,338.639 228.517,338.779 228.517 C 339.159 228.517,339.924 232.151,339.925 233.964 C 339.926 234.837,340.350 237.690,340.867 240.304 C 341.384 242.918,341.811 245.528,341.816 246.103 C 341.821 246.678,341.953 247.150,342.110 247.152 C 342.267 247.154,343.251 247.919,344.297 248.853 C 345.758 250.157,346.506 250.554,347.529 250.569 C 352.888 250.648,358.644 255.093,362.056 261.787 C 365.583 268.705,365.405 267.071,365.374 292.367 C 365.343 317.971,365.077 321.250,362.594 326.722 C 362.046 327.930,361.597 329.157,361.597 329.447 C 361.597 330.502,356.026 335.899,353.741 337.058 C 352.520 337.677,351.264 338.447,350.951 338.769 C 348.183 341.611,343.944 342.655,334.411 342.841 C 324.886 343.027,298.155 342.381,293.408 341.850 C 289.977 341.466,288.032 341.622,281.944 342.767 C 278.924 343.335,276.772 343.198,273.194 342.212 C 270.994 341.605,268.216 341.121,264.259 340.655 C 260.626 340.227,257.051 339.123,256.717 338.326 C 256.648 338.159,256.341 338.023,256.037 338.023 C 252.625 338.023,248.783 332.815,246.781 325.475 C 246.524 324.534,246.186 323.508,246.029 323.194 C 245.010 321.149,244.186 309.477,243.964 293.916 C 243.921 290.884,243.666 286.503,243.398 284.181 C 242.770 278.743,243.605 272.355,245.420 268.714 C 245.952 267.645,246.387 266.505,246.386 266.180 C 246.383 265.371,248.647 259.727,249.444 258.555 C 249.799 258.032,250.213 257.209,250.363 256.726 C 251.790 252.133,254.016 250.570,259.133 250.570 C 260.907 250.570,262.357 250.426,262.357 250.250 C 262.357 250.074,263.170 249.518,264.163 249.014 C 266.580 247.789,267.253 247.053,268.821 243.916 L 270.152 241.255 270.232 234.221 C 270.335 225.104,270.735 222.879,273.206 217.681 C 273.901 216.217,274.760 214.163,275.113 213.118 C 276.093 210.218,277.025 209.194,279.988 207.760 C 281.479 207.038,283.132 205.959,283.659 205.362 C 285.031 203.811,287.044 202.839,290.411 202.104 C 293.491 201.431,298.007 200.222,299.620 199.638 C 301.539 198.944,306.842 199.412,310.076 200.561 M300.505 225.393 C 298.380 226.822,297.927 227.459,297.147 230.116 C 296.761 231.432,296.285 232.720,296.090 232.978 C 293.982 235.765,296.586 244.579,300.036 246.332 C 302.655 247.663,305.911 247.073,308.364 244.824 L 310.454 242.908 310.645 238.745 C 310.960 231.905,310.791 230.725,309.264 229.057 C 308.539 228.267,307.670 227.151,307.331 226.577 C 306.073 224.448,302.764 223.874,300.505 225.393 " stroke="none" fill="#fafbfa" fill-rule="evenodd"></path><path id="path2" d="M164.259 48.503 C 162.063 48.772,159.496 49.186,158.555 49.423 C 157.614 49.659,156.214 50.012,155.443 50.208 C 153.624 50.669,149.332 52.723,148.425 53.565 C 147.743 54.200,145.698 54.855,142.997 55.304 C 141.610 55.534,137.643 57.342,137.642 57.744 C 137.642 57.997,133.947 59.954,131.397 61.053 C 129.673 61.796,128.621 62.795,127.609 64.652 C 127.215 65.377,126.333 66.568,125.650 67.300 C 124.967 68.032,123.886 69.465,123.248 70.484 C 122.610 71.504,121.741 72.580,121.318 72.877 C 120.894 73.174,119.737 74.564,118.747 75.967 C 117.756 77.369,116.849 78.603,116.731 78.707 C 114.961 80.270,111.760 89.182,111.064 94.487 C 110.546 98.441,109.910 101.545,109.508 102.091 C 108.996 102.786,108.217 106.916,107.763 111.347 C 107.522 113.692,107.669 114.850,108.976 120.913 C 109.314 122.481,109.837 125.561,110.137 127.757 C 111.186 135.411,112.163 139.097,113.367 139.937 C 113.943 140.339,114.829 142.967,114.829 144.274 C 114.829 147.374,117.136 150.706,120.532 152.512 C 122.251 153.426,122.895 154.075,123.953 155.962 C 125.260 158.290,128.411 161.977,129.095 161.977 C 129.370 161.977,129.651 162.139,129.721 162.338 C 129.791 162.536,131.302 163.466,133.080 164.405 C 134.857 165.343,136.483 166.422,136.692 166.801 C 138.032 169.232,141.658 172.065,144.106 172.595 C 146.769 173.172,146.937 173.231,149.262 174.429 C 150.111 174.867,152.164 175.414,153.825 175.644 C 155.485 175.875,157.700 176.187,158.745 176.336 C 161.806 176.774,184.342 176.611,186.692 176.134 C 187.842 175.901,189.695 175.612,190.810 175.492 C 191.924 175.372,193.345 175.010,193.968 174.688 C 194.590 174.366,196.720 173.621,198.701 173.032 C 202.599 171.873,203.280 171.423,205.064 168.821 C 206.680 166.465,209.673 164.259,211.253 164.259 C 213.224 164.259,217.612 160.155,219.931 156.142 C 220.751 154.724,221.919 153.189,222.528 152.732 C 226.740 149.567,228.707 147.050,229.229 144.153 C 229.519 142.547,230.184 140.586,230.786 139.564 C 232.843 136.076,233.840 133.105,233.840 130.464 C 233.840 129.597,233.997 128.590,234.189 128.227 C 236.015 124.769,236.561 103.691,234.905 100.570 C 234.350 99.525,233.799 98.070,233.680 97.338 C 233.561 96.606,233.296 94.981,233.092 93.726 C 232.473 89.912,231.720 87.373,230.498 84.981 C 229.858 83.726,229.046 82.060,228.694 81.279 C 228.343 80.498,227.589 79.385,227.020 78.807 C 226.450 78.230,225.579 77.158,225.083 76.426 C 224.586 75.694,223.912 74.838,223.583 74.525 C 223.254 74.211,222.266 72.842,221.387 71.483 C 220.508 70.124,219.015 68.277,218.069 67.379 C 217.124 66.480,216.350 65.570,216.350 65.356 C 216.350 63.956,212.774 60.456,211.344 60.456 C 210.661 60.456,207.340 58.753,205.636 57.527 C 203.960 56.323,202.770 55.878,198.353 54.805 C 197.343 54.560,195.889 53.877,195.121 53.288 C 193.822 52.289,191.780 51.431,186.122 49.503 C 181.496 47.926,172.366 47.509,164.259 48.503 M182.129 54.207 C 183.279 54.546,185.846 55.131,187.833 55.507 C 192.726 56.432,194.130 56.796,196.578 57.777 C 202.442 60.126,203.016 60.464,204.448 62.413 C 205.820 64.280,207.638 66.160,208.073 66.160 C 208.700 66.160,213.923 68.770,214.639 69.441 C 217.321 71.957,218.944 74.154,219.555 76.097 C 220.264 78.351,221.307 79.814,222.752 80.580 C 224.317 81.410,226.616 83.715,226.616 84.455 C 226.616 84.849,226.752 85.171,226.918 85.171 C 227.084 85.171,227.445 86.240,227.720 87.548 C 228.397 90.768,228.919 92.815,229.294 93.726 C 230.863 97.535,231.247 101.456,231.310 114.327 C 231.375 127.709,231.331 128.072,228.899 134.411 C 228.096 136.502,227.166 139.640,226.832 141.385 C 226.056 145.437,225.889 145.720,223.284 147.386 C 220.231 149.339,216.962 152.965,215.270 156.274 C 214.413 157.952,213.552 158.719,211.029 160.054 C 209.670 160.773,208.226 161.670,207.820 162.049 C 207.414 162.428,206.857 162.738,206.582 162.738 C 206.308 162.738,206.084 162.909,206.084 163.118 C 206.084 163.327,205.877 163.498,205.624 163.498 C 205.372 163.498,204.559 164.081,203.818 164.794 C 200.624 167.868,193.692 171.009,188.213 171.865 C 186.644 172.110,184.540 172.467,183.536 172.657 C 181.163 173.108,165.499 173.101,162.548 172.648 C 161.293 172.455,159.582 172.210,158.745 172.102 C 155.243 171.653,153.691 171.370,151.723 170.820 C 149.172 170.108,142.412 166.770,141.250 165.649 C 140.114 164.553,138.815 163.498,138.602 163.498 C 138.507 163.498,137.430 162.853,136.209 162.064 C 134.988 161.275,133.024 160.212,131.844 159.703 C 129.904 158.866,129.579 158.548,128.450 156.392 C 126.743 153.130,124.603 150.929,120.293 148.004 C 117.909 146.386,117.861 146.303,117.282 142.871 C 116.656 139.158,115.987 137.147,114.780 135.347 C 112.045 131.272,111.795 103.618,114.411 94.487 C 114.591 93.859,115.118 91.892,115.582 90.114 C 116.783 85.515,117.603 84.057,120.672 81.069 C 122.749 79.047,123.607 77.877,124.335 76.077 C 124.857 74.784,125.798 73.150,126.426 72.445 C 127.053 71.741,128.080 70.557,128.707 69.814 C 129.335 69.071,130.532 68.188,131.369 67.851 C 133.790 66.875,135.518 66.030,135.964 65.604 C 136.191 65.387,136.832 64.869,137.390 64.453 C 137.947 64.038,138.403 63.496,138.403 63.250 C 138.403 60.986,145.664 57.693,153.802 56.267 C 155.266 56.010,157.747 55.542,159.316 55.227 C 162.363 54.613,165.076 54.142,168.441 53.640 C 171.646 53.162,179.721 53.497,182.129 54.207 M206.029 200.000 C 204.012 200.105,183.052 200.162,159.451 200.127 L 116.540 200.065 111.997 201.173 C 109.498 201.783,106.675 202.288,105.723 202.295 C 104.118 202.308,101.910 202.700,97.148 203.815 C 94.373 204.466,88.493 207.354,86.764 208.915 C 85.942 209.658,85.076 210.266,84.840 210.266 C 84.604 210.266,84.411 210.426,84.411 210.621 C 84.411 210.816,84.069 211.084,83.652 211.216 C 83.235 211.348,82.673 211.678,82.402 211.949 C 82.130 212.220,80.547 213.078,78.882 213.854 C 77.217 214.631,75.258 215.560,74.528 215.920 C 72.254 217.040,68.533 222.229,67.820 225.274 C 67.416 227.001,66.216 228.814,63.855 231.265 C 61.090 234.135,60.546 235.357,58.732 242.776 C 58.375 244.240,57.889 245.677,57.653 245.971 C 56.231 247.739,57.037 303.379,58.571 309.377 C 59.808 314.216,63.540 316.509,67.815 315.057 C 69.468 314.496,75.830 314.448,138.333 314.521 C 226.085 314.623,220.183 314.580,221.172 315.128 C 222.246 315.724,225.451 315.050,227.468 313.802 C 231.052 311.586,231.916 307.157,230.641 297.544 C 230.224 294.397,230.047 290.184,230.066 283.856 C 230.094 274.584,230.258 272.569,231.286 268.821 C 231.602 267.671,231.978 265.789,232.121 264.639 C 232.376 262.599,232.748 260.878,233.520 258.175 C 233.729 257.443,234.563 256.090,235.373 255.167 C 236.183 254.245,237.072 253.024,237.348 252.454 C 238.103 250.895,241.951 246.057,242.458 246.031 C 243.200 245.992,247.667 243.602,248.526 242.784 C 248.970 242.361,249.815 241.673,250.404 241.255 C 252.057 240.080,253.149 238.722,254.251 236.472 C 254.806 235.338,255.551 233.983,255.906 233.460 C 256.568 232.484,257.992 228.691,258.331 226.996 C 258.610 225.599,259.517 222.489,260.215 220.532 C 262.305 214.674,260.325 209.182,255.497 207.445 C 254.424 207.060,253.164 206.361,252.695 205.892 C 250.711 203.908,247.998 203.122,241.445 202.631 C 238.413 202.405,234.990 201.962,233.840 201.649 C 229.010 200.332,226.479 200.054,218.207 199.934 C 213.526 199.866,208.046 199.895,206.029 200.000 M300.570 200.752 C 297.319 201.719,296.104 202.000,292.966 202.514 C 291.084 202.822,289.202 203.228,288.783 203.415 C 288.365 203.601,287.647 203.860,287.187 203.988 C 286.727 204.116,285.847 204.683,285.231 205.248 C 283.879 206.487,283.003 207.033,280.086 208.456 C 277.062 209.931,276.583 210.539,274.315 215.779 C 273.953 216.616,273.284 218.080,272.830 219.032 C 271.199 222.449,270.101 228.791,270.515 232.398 C 270.666 233.714,270.926 237.244,271.093 240.242 C 271.260 243.241,271.567 245.864,271.775 246.072 C 272.471 246.768,274.141 236.889,274.143 232.057 C 274.144 230.971,274.283 229.997,274.453 229.892 C 275.015 229.545,276.936 222.870,277.395 219.670 C 277.626 218.059,277.998 217.503,280.748 214.657 C 282.449 212.896,284.277 210.974,284.810 210.386 C 285.343 209.797,286.357 208.888,287.064 208.365 C 287.770 207.842,288.789 207.059,289.326 206.626 C 289.926 206.142,291.408 205.655,293.156 205.367 C 294.724 205.109,296.934 204.736,298.067 204.540 C 300.732 204.078,308.164 204.080,310.522 204.543 C 311.532 204.742,313.384 205.104,314.639 205.348 C 318.864 206.170,322.915 209.016,326.186 213.459 C 327.433 215.153,328.896 217.053,329.436 217.681 C 329.976 218.308,330.418 219.111,330.418 219.464 C 330.418 219.818,330.570 220.201,330.755 220.315 C 331.078 220.515,331.434 222.229,332.342 227.947 C 332.574 229.411,332.936 231.378,333.147 232.319 C 333.357 233.260,333.614 235.057,333.717 236.312 C 333.820 237.567,334.061 238.756,334.253 238.954 C 334.444 239.153,334.601 239.709,334.601 240.190 C 334.601 240.671,334.772 241.065,334.981 241.065 C 335.190 241.065,335.361 241.409,335.361 241.830 C 335.361 242.251,335.516 242.893,335.704 243.256 C 335.893 243.619,336.274 244.686,336.551 245.627 C 337.363 248.385,338.703 250.881,339.631 251.369 C 340.473 251.810,340.478 251.803,339.819 251.060 C 339.268 250.439,339.151 249.644,339.181 246.728 C 339.341 231.126,338.366 224.577,335.200 219.980 C 334.452 218.894,333.840 217.833,333.840 217.622 C 333.840 217.412,333.413 216.397,332.891 215.369 C 332.369 214.340,331.942 213.360,331.941 213.192 C 331.937 212.457,328.765 208.305,327.469 207.339 C 326.686 206.756,325.960 206.171,325.856 206.041 C 324.939 204.897,319.788 203.472,313.498 202.623 C 311.616 202.369,309.392 201.819,308.555 201.401 C 306.858 200.552,302.449 200.194,300.570 200.752 M208.175 204.544 C 245.348 204.920,245.797 204.946,248.344 206.914 C 249.106 207.503,249.918 207.985,250.150 207.985 C 250.381 207.985,250.570 208.135,250.570 208.319 C 250.570 208.503,251.041 208.849,251.616 209.090 C 252.608 209.504,254.373 211.714,254.373 212.542 C 254.373 212.754,254.532 212.928,254.727 212.928 C 256.093 212.928,255.789 217.389,254.225 220.301 C 253.197 222.215,252.893 223.359,252.496 226.806 C 252.231 229.106,251.690 231.714,251.292 232.600 C 250.895 233.487,250.570 234.373,250.570 234.569 C 250.570 234.766,250.356 235.153,250.095 235.430 C 249.834 235.706,248.991 236.716,248.222 237.673 C 247.078 239.097,245.900 239.876,241.758 241.946 C 238.972 243.339,236.261 244.866,235.734 245.339 C 234.723 246.248,234.498 246.678,231.942 252.570 C 231.057 254.610,230.038 256.663,229.677 257.132 C 227.993 259.323,227.434 267.035,227.420 288.302 C 227.414 297.657,227.248 305.956,227.051 306.743 C 226.853 307.531,226.592 308.624,226.469 309.172 C 225.956 311.463,219.340 312.396,204.373 312.291 C 199.772 312.258,166.578 312.175,130.608 312.104 L 65.209 311.977 63.548 311.027 C 60.719 309.407,60.475 307.737,60.440 289.734 C 60.372 255.726,60.881 244.133,62.513 242.478 C 63.562 241.414,66.121 237.189,67.973 233.460 C 69.064 231.264,70.439 228.925,71.029 228.262 C 71.618 227.599,72.410 226.316,72.788 225.410 C 73.166 224.505,73.632 223.422,73.823 223.004 C 74.158 222.273,77.808 219.687,79.827 218.751 C 86.234 215.778,86.559 215.573,89.354 212.743 C 91.994 210.068,93.806 208.746,94.830 208.745 C 95.358 208.745,100.110 206.507,100.374 206.134 C 100.810 205.518,103.879 204.941,106.888 204.910 C 108.642 204.891,110.932 204.754,111.977 204.604 C 114.887 204.188,169.470 204.154,208.175 204.544 M302.662 218.242 C 297.242 219.098,292.395 222.963,292.395 226.430 C 292.395 226.572,292.079 227.143,291.693 227.698 C 288.032 232.958,287.657 236.544,290.205 241.918 C 290.973 243.538,291.786 245.078,292.011 245.340 C 292.237 245.603,292.644 246.140,292.915 246.533 C 293.562 247.470,293.589 247.279,293.691 241.065 C 293.772 236.144,293.757 236.202,295.926 232.129 C 296.260 231.502,296.898 230.151,297.344 229.128 C 299.396 224.416,305.296 222.822,307.240 226.455 C 307.504 226.948,308.340 227.762,309.098 228.264 C 310.774 229.373,311.285 231.094,311.601 236.692 C 312.024 244.215,312.435 246.188,313.302 244.867 C 313.508 244.553,313.679 243.857,313.682 243.320 C 313.686 242.783,314.033 241.072,314.453 239.518 C 314.874 237.964,315.501 235.289,315.847 233.575 L 316.476 230.457 315.558 228.727 C 315.053 227.775,314.525 226.996,314.384 226.996 C 314.244 226.996,314.018 226.490,313.882 225.872 C 313.179 222.670,311.211 220.177,308.329 218.835 C 306.209 217.848,305.578 217.782,302.662 218.242 " stroke="none" fill="#bcc7ce" fill-rule="evenodd"></path><path id="path3" d="M168.111 53.641 C 166.779 53.814,165.627 54.018,165.552 54.093 C 165.477 54.168,168.620 54.219,172.537 54.206 C 178.601 54.186,180.194 54.307,183.270 55.024 C 185.257 55.487,188.337 56.149,190.114 56.494 C 191.892 56.840,193.774 57.212,194.297 57.321 C 194.819 57.429,195.132 57.394,194.992 57.243 C 194.684 56.910,192.658 56.419,187.833 55.507 C 185.846 55.131,183.279 54.546,182.129 54.207 C 179.691 53.488,171.745 53.167,168.111 53.641 M161.787 54.763 C 161.279 54.988,161.595 55.024,162.738 54.873 C 163.679 54.749,164.520 54.585,164.607 54.510 C 164.937 54.224,162.513 54.441,161.787 54.763 M195.437 57.587 C 195.437 57.757,196.099 58.071,199.810 59.662 C 202.837 60.960,203.575 61.457,204.183 62.607 C 204.496 63.202,204.838 63.774,204.943 63.878 C 205.048 63.983,205.316 64.399,205.539 64.803 C 205.762 65.208,206.190 65.676,206.489 65.843 C 207.636 66.486,212.204 68.441,212.556 68.441 C 212.759 68.441,214.252 69.675,215.873 71.182 C 217.885 73.053,218.278 73.329,217.110 72.054 C 216.169 71.026,215.057 69.857,214.639 69.456 C 213.930 68.778,208.716 66.160,208.073 66.160 C 207.638 66.160,205.820 64.280,204.448 62.413 C 203.041 60.498,202.682 60.281,197.197 58.021 C 195.607 57.366,195.437 57.324,195.437 57.587 M144.867 58.555 C 144.360 58.883,144.360 58.924,144.867 58.924 C 145.181 58.924,145.694 58.758,146.008 58.555 C 146.515 58.228,146.515 58.187,146.008 58.187 C 145.694 58.187,145.181 58.352,144.867 58.555 M140.015 61.260 C 139.128 62.121,138.403 63.022,138.403 63.261 C 138.403 63.501,137.947 64.038,137.390 64.453 C 136.832 64.869,136.191 65.390,135.964 65.611 C 135.737 65.831,135.227 66.135,134.832 66.285 C 134.436 66.435,134.206 66.652,134.321 66.767 C 134.923 67.369,138.003 65.007,138.909 63.247 C 139.249 62.586,140.169 61.517,140.953 60.871 C 141.737 60.225,142.210 59.696,142.003 59.696 C 141.796 59.696,140.902 60.400,140.015 61.260 M128.707 69.696 C 127.468 71.214,127.367 71.534,128.437 70.556 C 129.108 69.942,129.658 69.386,129.658 69.320 C 129.658 69.033,129.054 69.271,128.707 69.696 M126.426 72.358 C 125.187 73.876,125.086 74.196,126.155 73.218 C 126.827 72.604,127.376 72.048,127.376 71.982 C 127.376 71.694,126.773 71.933,126.426 72.358 M119.567 82.224 L 117.681 84.221 119.677 82.334 C 121.532 80.580,121.847 80.228,121.564 80.228 C 121.504 80.228,120.605 81.126,119.567 82.224 M222.814 80.752 C 222.814 80.859,223.625 81.713,224.617 82.650 C 226.513 84.442,227.401 84.729,225.825 83.041 C 224.821 81.965,222.814 80.439,222.814 80.752 M116.603 86.185 C 116.464 86.324,116.361 86.795,116.374 87.231 C 116.396 87.959,116.427 87.949,116.762 87.112 C 117.135 86.181,117.057 85.731,116.603 86.185 M227.441 87.452 C 227.460 88.440,228.059 90.063,228.072 89.163 C 228.078 88.745,227.936 88.061,227.757 87.643 C 227.556 87.177,227.434 87.103,227.441 87.452 M115.430 90.774 C 115.069 92.189,114.615 93.739,114.421 94.219 C 113.955 95.374,113.946 96.649,114.410 95.817 C 114.876 94.981,116.468 88.585,116.262 88.378 C 116.165 88.281,115.790 89.359,115.430 90.774 M228.190 91.065 C 228.190 91.483,228.337 92.167,228.517 92.586 L 228.844 93.346 228.844 92.586 C 228.844 92.167,228.697 91.483,228.517 91.065 L 228.190 90.304 228.190 91.065 M228.897 93.674 C 228.897 94.355,230.153 97.730,230.338 97.545 C 230.574 97.309,229.675 94.279,229.211 93.745 C 229.039 93.547,228.897 93.514,228.897 93.674 M112.669 123.194 C 112.669 124.553,112.738 125.109,112.823 124.430 C 112.907 123.750,112.907 122.638,112.823 121.958 C 112.738 121.279,112.669 121.835,112.669 123.194 M112.992 128.327 C 112.986 128.954,113.128 129.810,113.308 130.228 C 113.755 131.268,113.755 129.532,113.308 128.137 C 113.011 127.210,113.003 127.215,112.992 128.327 M229.543 131.226 C 229.188 132.155,228.897 133.040,228.897 133.192 C 228.897 133.344,228.572 134.194,228.175 135.080 C 227.064 137.560,226.612 139.165,226.662 140.456 C 226.701 141.479,226.757 141.408,227.079 139.924 C 227.284 138.983,228.135 136.465,228.971 134.329 C 229.807 132.193,230.423 130.241,230.339 129.991 C 230.256 129.741,229.897 130.297,229.543 131.226 M113.914 132.877 C 114.035 133.706,114.425 134.819,114.780 135.348 C 115.566 136.519,116.138 137.779,116.686 139.544 L 117.098 140.875 116.929 139.392 C 116.836 138.577,116.219 136.866,115.558 135.590 C 114.897 134.314,114.207 132.842,114.025 132.319 C 113.776 131.607,113.749 131.746,113.914 132.877 M117.154 142.205 C 117.136 142.937,117.288 143.793,117.490 144.106 C 117.954 144.823,117.954 143.272,117.490 141.825 C 117.212 140.954,117.183 140.986,117.154 142.205 M225.702 143.447 C 224.974 144.989,222.284 147.909,221.590 147.909 C 221.123 147.909,217.683 151.547,216.826 152.947 C 216.474 153.522,216.052 153.992,215.888 153.992 C 215.724 153.992,215.589 154.153,215.589 154.349 C 215.589 155.726,213.330 158.218,211.027 159.382 C 209.667 160.069,208.470 160.737,208.365 160.867 C 208.260 160.997,207.758 161.323,207.248 161.591 C 206.739 161.860,206.140 162.231,205.917 162.414 C 203.800 164.167,201.147 165.872,198.289 167.320 C 196.407 168.273,194.439 169.332,193.916 169.674 C 192.938 170.315,189.719 171.079,184.879 171.820 C 181.373 172.357,163.453 172.373,160.120 171.843 C 158.736 171.623,156.407 171.255,154.943 171.026 C 153.479 170.797,151.340 170.144,150.190 169.574 C 149.040 169.004,146.767 167.919,145.139 167.162 C 143.512 166.406,141.715 165.346,141.147 164.808 C 140.579 164.269,139.617 163.565,139.009 163.243 C 138.401 162.920,137.556 162.333,137.131 161.937 C 136.706 161.541,136.134 161.217,135.860 161.217 C 135.586 161.217,135.361 161.080,135.361 160.913 C 135.361 160.746,134.739 160.384,133.979 160.109 C 131.219 159.111,130.093 158.172,129.006 155.959 C 127.744 153.390,124.281 149.823,121.005 147.719 C 119.703 146.882,118.636 145.994,118.635 145.745 C 118.633 145.496,118.460 145.186,118.251 145.057 C 116.452 143.945,118.308 146.656,120.247 147.973 C 124.605 150.931,126.737 153.119,128.450 156.392 C 129.579 158.548,129.904 158.866,131.844 159.703 C 133.024 160.212,134.988 161.275,136.209 162.064 C 137.430 162.853,138.507 163.498,138.602 163.498 C 138.815 163.498,140.114 164.553,141.250 165.649 C 142.412 166.770,149.172 170.108,151.723 170.820 C 153.691 171.370,155.243 171.653,158.745 172.102 C 159.582 172.210,161.293 172.455,162.548 172.648 C 165.499 173.101,181.163 173.108,183.536 172.657 C 184.540 172.467,186.644 172.110,188.213 171.865 C 193.692 171.009,200.624 167.868,203.818 164.794 C 204.559 164.081,205.372 163.498,205.624 163.498 C 205.877 163.498,206.084 163.327,206.084 163.118 C 206.084 162.909,206.308 162.738,206.582 162.738 C 206.857 162.738,207.414 162.428,207.820 162.049 C 208.226 161.670,209.670 160.773,211.029 160.054 C 213.552 158.719,214.413 157.952,215.270 156.274 C 216.971 152.947,220.232 149.338,223.328 147.358 C 225.563 145.928,226.800 144.093,226.542 142.590 C 226.462 142.122,226.202 142.387,225.702 143.447 M114.549 204.455 C 115.127 204.543,115.982 204.540,116.450 204.450 C 116.918 204.360,116.445 204.288,115.399 204.291 C 114.354 204.294,113.971 204.368,114.549 204.455 M125.000 204.461 C 125.889 204.541,127.343 204.541,128.232 204.461 C 129.121 204.381,128.394 204.315,126.616 204.315 C 124.838 204.315,124.111 204.381,125.000 204.461 M149.525 204.468 C 156.583 204.525,168.132 204.525,175.190 204.468 C 182.248 204.410,176.473 204.362,162.357 204.362 C 148.241 204.362,142.467 204.410,149.525 204.468 M297.529 204.615 C 296.483 204.804,294.430 205.161,292.966 205.409 C 291.091 205.727,289.833 206.202,288.712 207.017 C 286.622 208.536,286.602 209.100,288.688 207.687 C 291.583 205.725,297.069 204.754,305.133 204.776 C 308.479 204.785,310.789 204.673,310.266 204.526 C 308.908 204.144,299.786 204.208,297.529 204.615 M111.316 204.832 C 111.789 204.923,112.474 204.919,112.837 204.824 C 113.201 204.729,112.814 204.654,111.977 204.659 C 111.141 204.663,110.843 204.741,111.316 204.832 M230.328 204.832 C 230.801 204.923,231.485 204.919,231.849 204.824 C 232.212 204.729,231.825 204.654,230.989 204.659 C 230.152 204.663,229.855 204.741,230.328 204.832 M102.471 205.343 C 101.960 205.576,102.332 205.613,103.612 205.457 C 104.658 205.330,105.585 205.162,105.672 205.084 C 106.005 204.787,103.194 205.013,102.471 205.343 M235.773 205.081 C 235.860 205.156,238.070 205.307,240.684 205.416 C 243.298 205.524,245.010 205.479,244.487 205.316 C 243.559 205.026,235.459 204.807,235.773 205.081 M312.167 205.291 C 312.690 205.476,313.521 205.645,314.014 205.666 C 315.017 205.708,319.891 207.921,320.089 208.423 C 320.158 208.600,320.468 208.745,320.778 208.745 C 321.087 208.745,322.548 209.986,324.026 211.502 C 325.503 213.018,326.322 213.682,325.845 212.977 C 323.026 208.811,317.641 205.480,313.125 205.110 C 311.695 204.993,311.455 205.038,312.167 205.291 M100.380 206.027 C 100.380 206.362,95.487 208.745,94.800 208.745 C 93.806 208.745,91.967 210.096,89.354 212.747 C 87.785 214.337,85.758 215.982,84.849 216.401 C 83.940 216.820,83.292 217.259,83.409 217.377 C 83.926 217.893,86.731 215.989,89.908 212.968 C 92.899 210.124,93.697 209.578,96.009 208.797 C 98.715 207.882,102.249 205.703,101.025 205.703 C 100.671 205.703,100.380 205.849,100.380 206.027 M246.193 206.165 C 246.609 206.406,247.283 206.914,247.691 207.294 C 248.099 207.674,248.614 207.990,248.836 207.995 C 252.297 208.086,255.986 216.068,254.173 219.543 C 253.315 221.190,253.732 221.127,254.663 219.469 C 255.826 217.401,255.869 212.928,254.727 212.928 C 254.532 212.928,254.373 212.754,254.373 212.542 C 254.373 211.714,252.608 209.504,251.616 209.090 C 251.041 208.849,250.570 208.503,250.570 208.319 C 250.570 208.135,250.381 207.985,250.150 207.985 C 249.918 207.985,249.081 207.471,248.289 206.844 C 247.497 206.217,246.531 205.709,246.143 205.715 C 245.483 205.726,245.487 205.755,246.193 206.165 M80.228 218.557 C 77.802 219.766,74.541 221.940,73.871 222.793 C 72.887 224.049,73.450 223.965,74.753 222.662 C 75.506 221.909,76.361 221.293,76.654 221.293 C 76.947 221.293,77.186 221.149,77.186 220.972 C 77.186 220.796,77.999 220.244,78.992 219.745 C 81.524 218.473,83.148 217.491,82.700 217.504 C 82.490 217.510,81.378 217.983,80.228 218.557 M252.332 225.129 C 252.199 225.790,252.111 226.780,252.136 227.329 C 252.160 227.878,252.334 227.403,252.521 226.273 C 252.887 224.070,252.731 223.131,252.332 225.129 M70.408 228.947 C 69.922 229.547,69.665 230.033,69.838 230.026 C 70.191 230.013,71.631 228.148,71.425 227.971 C 71.352 227.908,70.895 228.348,70.408 228.947 M274.398 229.911 C 274.259 230.051,274.144 231.041,274.144 232.112 C 274.144 234.851,273.154 242.340,272.432 245.057 C 270.716 251.520,270.862 251.245,268.593 252.283 C 267.451 252.805,266.206 253.232,265.825 253.232 C 265.444 253.232,264.636 253.383,264.030 253.568 C 263.424 253.753,262.158 254.130,261.217 254.406 C 258.193 255.293,254.615 257.527,253.963 258.935 C 253.721 259.458,253.372 260.183,253.188 260.546 C 253.003 260.909,252.846 261.423,252.840 261.687 C 252.833 261.951,252.317 263.194,251.692 264.449 C 249.697 268.457,249.301 274.201,249.402 297.719 C 249.493 318.691,249.609 320.307,251.280 323.764 C 251.684 324.601,252.527 326.403,253.152 327.770 C 255.110 332.048,259.418 334.353,267.300 335.341 C 268.869 335.537,271.949 335.970,274.144 336.303 C 277.443 336.804,278.699 336.834,281.369 336.474 C 283.259 336.219,287.836 336.095,292.395 336.175 C 296.683 336.250,309.515 336.305,320.913 336.297 C 344.168 336.280,341.779 336.535,349.240 333.279 C 353.084 331.601,355.408 328.032,357.416 320.722 C 359.384 313.555,359.385 313.545,359.592 301.906 C 360.013 278.151,359.652 273.139,357.061 266.730 C 354.754 261.026,353.248 257.795,352.895 257.795 C 352.741 257.795,352.283 257.489,351.878 257.116 C 351.145 256.440,347.821 254.753,347.224 254.753 C 347.052 254.753,346.203 254.411,345.337 253.992 C 344.471 253.574,343.592 253.232,343.383 253.232 C 340.891 253.232,337.733 249.720,336.545 245.627 C 336.271 244.686,335.893 243.619,335.704 243.256 C 335.516 242.893,335.361 242.251,335.361 241.830 C 335.361 241.409,335.190 241.065,334.981 241.065 C 334.772 241.065,334.601 240.647,334.601 240.137 C 334.601 239.626,334.430 239.103,334.221 238.973 C 334.011 238.844,333.838 237.765,333.834 236.575 C 333.831 235.384,333.663 234.154,333.460 233.840 C 333.213 233.460,333.095 235.355,333.105 239.544 C 333.127 249.971,332.228 252.167,327.772 252.571 C 322.520 253.048,321.190 252.207,318.443 246.676 L 316.317 242.395 316.389 237.540 C 316.470 232.100,316.256 231.226,315.642 234.486 C 315.414 235.699,314.881 237.964,314.458 239.518 C 314.035 241.072,313.688 242.686,313.688 243.103 C 313.688 243.521,313.529 244.388,313.334 245.030 C 313.139 245.672,312.775 246.906,312.526 247.772 C 311.631 250.883,310.777 251.397,305.401 252.062 C 299.243 252.823,295.924 251.709,293.912 248.204 C 293.182 246.934,292.369 245.673,292.104 245.402 C 291.114 244.388,288.846 238.924,288.573 236.895 C 288.359 235.296,288.302 235.886,288.337 239.354 C 288.437 249.251,285.631 253.964,280.277 252.889 C 277.672 252.365,276.997 251.757,276.291 249.297 C 274.961 244.662,274.715 242.623,274.715 236.218 C 274.715 232.611,274.701 229.660,274.683 229.659 C 274.666 229.658,274.537 229.772,274.398 229.911 M251.201 231.645 C 250.584 233.261,248.710 236.012,246.958 237.872 C 246.540 238.317,244.316 239.672,242.015 240.885 C 239.715 242.097,237.490 243.275,237.072 243.503 C 235.200 244.521,233.594 246.635,232.728 249.218 C 232.241 250.671,231.522 252.430,231.131 253.127 C 230.739 253.825,230.418 254.647,230.418 254.955 C 230.418 255.262,230.268 255.513,230.085 255.513 C 229.564 255.513,228.132 259.144,228.182 260.337 C 228.219 261.200,228.310 261.077,228.657 259.696 C 228.894 258.755,229.397 257.528,229.776 256.970 C 230.155 256.412,231.231 254.188,232.168 252.027 C 234.521 246.597,234.667 246.325,235.741 245.345 C 236.264 244.868,238.972 243.339,241.758 241.946 C 245.900 239.876,247.078 239.097,248.222 237.673 C 248.991 236.716,249.834 235.706,250.095 235.430 C 250.356 235.153,250.570 234.766,250.570 234.569 C 250.570 234.373,250.929 233.450,251.367 232.518 C 251.805 231.586,252.095 230.620,252.012 230.370 C 251.929 230.121,251.564 230.694,251.201 231.645 M65.244 238.593 C 64.902 239.116,64.769 239.544,64.949 239.544 C 65.130 239.544,65.472 239.116,65.710 238.593 C 65.948 238.070,66.081 237.643,66.005 237.643 C 65.929 237.643,65.587 238.070,65.244 238.593 M63.731 240.863 C 63.384 241.392,63.234 241.825,63.398 241.825 C 63.768 241.825,64.752 240.291,64.527 240.065 C 64.436 239.974,64.078 240.333,63.731 240.863 M62.024 243.205 C 61.391 244.595,61.667 244.672,62.442 243.321 C 62.794 242.708,62.947 242.205,62.781 242.205 C 62.615 242.205,62.275 242.655,62.024 243.205 M61.074 245.832 C 60.943 246.172,60.854 246.821,60.875 247.274 C 60.900 247.796,61.029 247.610,61.227 246.771 C 61.559 245.358,61.468 244.803,61.074 245.832 M227.654 263.878 C 227.505 265.029,227.404 266.740,227.430 267.681 C 227.465 268.920,227.569 268.553,227.809 266.350 C 228.192 262.843,228.060 260.746,227.654 263.878 M60.380 272.529 C 60.317 275.822,60.356 284.249,60.466 291.255 L 60.666 303.992 60.751 285.266 C 60.798 274.967,60.759 266.540,60.665 266.540 C 60.571 266.540,60.442 269.235,60.380 272.529 M227.043 275.507 C 227.068 278.417,227.218 282.595,227.374 284.791 C 227.549 287.237,227.586 285.249,227.468 279.658 C 227.363 274.639,227.214 270.461,227.137 270.374 C 227.059 270.287,227.017 272.597,227.043 275.507 M61.681 309.305 C 61.919 310.896,64.463 311.780,68.631 311.720 L 72.433 311.666 68.441 311.423 C 64.387 311.176,62.882 310.653,61.954 309.171 C 61.621 308.639,61.584 308.657,61.681 309.305 M218.543 311.682 C 219.226 311.767,220.253 311.765,220.824 311.679 C 221.396 311.592,220.837 311.523,219.582 311.525 C 218.327 311.527,217.860 311.598,218.543 311.682 M79.966 312.071 C 82.854 312.136,87.473 312.136,90.232 312.071 C 92.990 312.006,90.627 311.953,84.981 311.954 C 79.335 311.954,77.078 312.007,79.966 312.071 M104.278 312.069 C 105.689 312.142,107.999 312.142,109.411 312.069 C 110.822 311.996,109.667 311.936,106.844 311.936 C 104.021 311.936,102.866 311.996,104.278 312.069 M118.169 312.068 C 119.274 312.145,120.985 312.144,121.971 312.066 C 122.957 311.988,122.053 311.925,119.962 311.926 C 117.871 311.927,117.064 311.991,118.169 312.068 M130.336 312.068 C 131.441 312.145,133.152 312.144,134.138 312.066 C 135.125 311.988,134.221 311.925,132.129 311.926 C 130.038 311.927,129.231 311.991,130.336 312.068 M142.503 312.068 C 143.608 312.145,145.319 312.144,146.306 312.066 C 147.292 311.988,146.388 311.925,144.297 311.926 C 142.205 311.927,141.398 311.991,142.503 312.068 M154.290 312.068 C 155.395 312.145,157.106 312.144,158.093 312.066 C 159.079 311.988,158.175 311.925,156.084 311.926 C 153.992 311.927,153.185 311.991,154.290 312.068 M169.302 312.060 C 169.880 312.147,170.735 312.145,171.203 312.055 C 171.671 311.964,171.198 311.893,170.152 311.896 C 169.106 311.899,168.724 311.973,169.302 312.060 M181.274 312.055 C 181.744 312.146,182.514 312.146,182.985 312.055 C 183.455 311.965,183.070 311.891,182.129 311.891 C 181.188 311.891,180.803 311.965,181.274 312.055 M194.106 312.187 C 198.653 312.559,211.487 312.557,213.878 312.185 C 214.988 312.012,210.557 311.893,203.232 311.898 C 194.956 311.904,191.849 312.003,194.106 312.187 " stroke="none" fill="#acd89c" fill-rule="evenodd"></path><path id="path4" d="M164.259 47.713 C 157.992 48.373,150.416 50.764,148.382 52.722 C 148.119 52.975,147.563 53.290,147.146 53.423 C 146.729 53.555,146.388 53.823,146.388 54.018 C 146.388 54.213,145.732 54.373,144.930 54.373 C 142.147 54.373,137.905 56.125,135.618 58.219 C 135.237 58.568,133.895 59.230,132.636 59.689 C 130.081 60.620,127.753 62.508,126.872 64.363 C 126.551 65.037,125.751 66.103,125.095 66.730 C 124.439 67.357,123.627 68.448,123.292 69.154 C 122.956 69.860,121.466 71.656,119.979 73.146 C 117.619 75.512,114.068 81.243,114.068 82.688 C 114.068 82.827,113.675 83.485,113.194 84.151 C 112.144 85.604,111.613 87.196,111.079 90.494 C 110.039 96.916,109.536 99.618,108.964 101.870 C 108.623 103.212,108.413 104.495,108.498 104.722 C 108.582 104.948,108.768 104.620,108.911 103.992 C 109.054 103.365,109.306 102.595,109.471 102.281 C 109.927 101.412,110.566 98.285,111.064 94.487 C 111.760 89.182,114.961 80.270,116.731 78.707 C 116.849 78.603,117.756 77.369,118.747 75.967 C 119.737 74.564,120.894 73.174,121.318 72.877 C 121.741 72.580,122.610 71.504,123.248 70.484 C 123.886 69.465,124.967 68.032,125.650 67.300 C 126.333 66.568,127.215 65.377,127.609 64.652 C 128.621 62.795,129.673 61.796,131.397 61.053 C 133.947 59.954,137.642 57.997,137.642 57.744 C 137.643 57.342,141.610 55.534,142.997 55.304 C 145.698 54.855,147.743 54.200,148.425 53.565 C 149.355 52.701,153.645 50.663,155.538 50.186 C 156.361 49.979,157.757 49.629,158.640 49.409 C 166.387 47.473,180.305 47.521,186.122 49.503 C 191.780 51.431,193.822 52.289,195.121 53.288 C 195.889 53.877,197.343 54.560,198.353 54.805 C 202.770 55.878,203.960 56.323,205.636 57.527 C 207.340 58.753,210.661 60.456,211.344 60.456 C 212.774 60.456,216.350 63.956,216.350 65.356 C 216.350 65.570,217.124 66.480,218.069 67.379 C 219.015 68.277,220.508 70.124,221.387 71.483 C 222.266 72.842,223.254 74.211,223.583 74.525 C 223.912 74.838,224.586 75.694,225.083 76.426 C 225.579 77.158,226.450 78.230,227.020 78.807 C 227.589 79.385,228.343 80.498,228.694 81.279 C 229.046 82.060,229.849 83.714,230.479 84.955 C 231.690 87.336,233.062 92.098,233.107 94.072 C 233.149 95.949,233.780 97.108,233.814 95.371 C 233.868 92.524,232.168 85.770,231.007 84.221 C 230.537 83.593,229.811 82.306,229.394 81.361 C 228.978 80.415,228.390 79.389,228.089 79.079 C 227.788 78.770,227.128 77.918,226.622 77.186 C 226.116 76.454,225.604 75.770,225.484 75.665 C 225.364 75.561,224.676 74.705,223.954 73.764 C 223.233 72.823,222.532 71.968,222.397 71.863 C 222.261 71.759,221.681 70.800,221.106 69.732 C 220.532 68.665,219.610 67.524,219.056 67.197 C 218.503 66.870,217.471 65.519,216.763 64.195 C 215.285 61.429,214.092 60.178,212.626 59.857 C 210.229 59.331,206.326 57.402,205.323 56.247 C 204.880 55.737,200.133 54.373,198.801 54.373 C 198.370 54.373,197.488 53.926,196.840 53.381 C 190.883 48.368,178.494 46.213,164.259 47.713 M233.866 97.792 C 233.852 98.355,234.213 99.448,234.669 100.221 C 235.125 100.993,235.619 102.243,235.766 102.999 L 236.034 104.373 236.078 103.133 C 236.102 102.451,235.803 101.168,235.413 100.281 C 235.024 99.395,234.522 98.241,234.298 97.719 L 233.892 96.768 233.866 97.792 M235.565 116.276 C 235.406 118.222,235.365 119.903,235.473 120.010 C 235.733 120.270,236.257 113.896,236.029 113.245 C 235.932 112.966,235.723 114.330,235.565 116.276 M107.687 115.779 C 107.691 116.198,107.825 117.053,107.985 117.681 C 108.246 118.705,108.276 118.725,108.282 117.871 C 108.286 117.348,108.152 116.492,107.985 115.970 C 107.746 115.225,107.682 115.184,107.687 115.779 M108.563 121.293 C 108.659 122.443,108.888 124.325,109.073 125.475 C 109.257 126.625,109.703 129.444,110.064 131.739 C 110.777 136.273,111.794 139.467,113.091 141.255 C 113.547 141.882,114.151 143.593,114.434 145.057 C 115.440 150.264,118.534 153.992,121.848 153.992 C 122.170 153.992,122.433 154.261,122.433 154.590 C 122.433 155.684,124.456 158.717,126.780 161.108 C 128.958 163.349,130.079 164.074,133.680 165.571 C 134.533 165.926,135.513 166.694,135.857 167.277 C 137.742 170.467,140.696 172.597,144.297 173.361 C 146.995 173.934,148.669 174.515,148.669 174.879 C 148.669 177.024,180.244 178.446,189.354 176.711 C 193.959 175.834,195.075 175.506,196.578 174.584 C 197.310 174.135,198.251 173.764,198.669 173.760 C 199.469 173.752,201.389 173.105,203.122 172.258 C 203.689 171.981,204.570 171.125,205.079 170.356 C 206.540 168.148,209.092 165.847,210.597 165.380 C 212.805 164.696,214.944 163.616,215.973 162.667 C 217.246 161.492,220.152 157.639,220.152 157.126 C 220.152 156.901,220.280 156.660,220.437 156.591 C 220.594 156.521,221.027 155.805,221.400 154.999 C 221.773 154.194,222.415 153.446,222.826 153.339 C 223.238 153.231,223.574 153.004,223.574 152.833 C 223.574 152.662,223.889 152.423,224.273 152.301 C 226.662 151.543,229.333 147.674,229.790 144.309 C 229.931 143.271,230.472 141.777,230.993 140.990 C 231.513 140.204,231.939 139.454,231.939 139.324 C 231.939 139.194,232.172 138.549,232.456 137.890 C 233.651 135.120,233.838 134.514,233.801 133.537 C 233.766 132.590,233.732 132.614,233.377 133.840 C 232.855 135.641,232.045 137.429,230.786 139.564 C 230.184 140.586,229.519 142.547,229.229 144.153 C 228.707 147.050,226.740 149.567,222.528 152.732 C 221.919 153.189,220.751 154.724,219.931 156.142 C 217.612 160.155,213.224 164.259,211.253 164.259 C 209.673 164.259,206.680 166.465,205.064 168.821 C 203.280 171.423,202.599 171.873,198.701 173.032 C 196.720 173.621,194.590 174.366,193.968 174.688 C 193.345 175.010,191.924 175.372,190.810 175.492 C 189.695 175.612,187.842 175.901,186.692 176.134 C 184.342 176.611,161.806 176.774,158.745 176.336 C 157.700 176.187,155.485 175.875,153.825 175.644 C 152.164 175.414,150.111 174.867,149.262 174.429 C 146.937 173.231,146.769 173.172,144.106 172.595 C 141.658 172.065,138.032 169.232,136.692 166.801 C 136.483 166.422,134.857 165.343,133.080 164.405 C 131.302 163.466,129.791 162.536,129.721 162.338 C 129.651 162.139,129.370 161.977,129.095 161.977 C 128.411 161.977,125.260 158.290,123.953 155.962 C 122.895 154.075,122.251 153.426,120.532 152.512 C 117.136 150.706,114.829 147.374,114.829 144.274 C 114.829 142.967,113.943 140.339,113.367 139.937 C 112.145 139.085,111.017 134.792,110.264 128.137 C 110.040 126.150,109.697 124.011,109.502 123.384 C 109.307 122.757,108.976 121.559,108.767 120.722 C 108.402 119.261,108.394 119.283,108.563 121.293 M234.842 125.665 C 234.688 126.711,234.399 127.864,234.201 128.227 C 234.003 128.590,233.854 129.531,233.870 130.318 C 233.897 131.593,233.934 131.645,234.208 130.798 C 234.883 128.712,235.430 125.608,235.281 124.712 C 235.169 124.039,235.042 124.316,234.842 125.665 M115.209 199.634 C 111.916 200.346,109.670 200.739,106.464 201.166 C 104.686 201.402,102.120 201.904,100.760 202.281 C 99.401 202.658,97.861 203.057,97.338 203.168 C 93.368 204.011,90.766 204.956,90.288 205.730 C 90.157 205.942,89.380 206.384,88.561 206.711 C 87.742 207.039,87.072 207.436,87.072 207.593 C 87.072 207.750,86.302 208.288,85.361 208.787 C 84.420 209.286,83.650 209.796,83.650 209.921 C 83.650 210.045,82.837 210.558,81.844 211.061 C 80.851 211.565,79.867 212.107,79.658 212.267 C 78.344 213.273,76.317 214.439,75.150 214.861 C 73.535 215.445,72.348 216.439,71.103 218.251 C 70.600 218.983,70.087 219.667,69.962 219.772 C 69.193 220.417,68.077 222.560,67.486 224.525 C 66.738 227.017,65.996 228.161,63.363 230.886 C 60.631 233.712,59.662 235.709,59.160 239.544 C 58.981 240.908,59.133 240.639,59.909 238.213 C 61.219 234.119,61.383 233.831,63.855 231.265 C 66.216 228.814,67.416 227.001,67.820 225.274 C 68.533 222.229,72.254 217.040,74.528 215.920 C 75.258 215.560,77.217 214.631,78.882 213.854 C 80.547 213.078,82.130 212.220,82.402 211.949 C 82.673 211.678,83.235 211.348,83.652 211.216 C 84.069 211.084,84.411 210.816,84.411 210.621 C 84.411 210.426,84.604 210.266,84.840 210.266 C 85.076 210.266,85.942 209.658,86.764 208.915 C 88.493 207.354,94.373 204.466,97.148 203.815 C 101.910 202.700,104.118 202.308,105.723 202.295 C 106.675 202.288,109.578 201.753,112.174 201.108 L 116.895 199.935 128.124 200.110 C 135.338 200.223,137.450 200.185,134.030 200.006 C 122.197 199.385,116.853 199.279,115.209 199.634 M299.620 199.638 C 298.007 200.222,293.491 201.431,290.411 202.104 C 287.044 202.839,285.031 203.811,283.659 205.362 C 283.132 205.959,281.479 207.038,279.988 207.760 C 277.327 209.047,276.332 210.024,275.347 212.311 C 274.611 214.024,275.099 213.898,276.015 212.140 C 277.101 210.058,277.450 209.742,280.086 208.456 C 283.003 207.033,283.879 206.487,285.231 205.248 C 285.847 204.683,286.727 204.116,287.187 203.988 C 287.647 203.860,288.365 203.601,288.783 203.415 C 289.202 203.228,291.084 202.822,292.966 202.514 C 294.848 202.206,297.072 201.761,297.909 201.526 C 301.681 200.464,302.611 200.323,304.764 200.486 C 306.025 200.581,307.736 200.997,308.566 201.410 C 309.397 201.823,311.616 202.369,313.498 202.623 C 319.788 203.472,324.939 204.897,325.856 206.041 C 325.960 206.171,326.686 206.756,327.469 207.339 C 328.698 208.255,331.939 212.446,331.939 213.118 C 331.939 213.642,333.527 216.789,333.703 216.614 C 333.808 216.509,333.561 215.765,333.155 214.961 C 332.749 214.156,332.286 213.070,332.127 212.548 C 331.217 209.564,326.654 204.839,323.845 203.972 C 320.947 203.077,317.102 202.281,315.679 202.281 C 314.997 202.281,314.141 202.137,313.778 201.962 C 309.395 199.839,302.289 198.673,299.620 199.638 M139.924 199.905 C 139.925 200.062,154.169 200.190,171.578 200.190 C 188.988 200.190,201.179 200.085,198.669 199.956 C 192.000 199.615,139.924 199.569,139.924 199.905 M212.268 199.893 C 212.846 199.980,213.701 199.978,214.169 199.887 C 214.636 199.797,214.163 199.726,213.118 199.729 C 212.072 199.731,211.690 199.805,212.268 199.893 M222.814 200.036 C 228.552 200.314,229.477 200.449,233.840 201.646 C 234.990 201.961,238.413 202.405,241.445 202.631 C 247.998 203.122,250.711 203.908,252.695 205.892 C 253.164 206.361,254.424 207.060,255.497 207.445 C 260.325 209.182,262.305 214.674,260.215 220.532 C 259.517 222.489,258.610 225.599,258.331 226.996 C 257.992 228.691,256.568 232.484,255.906 233.460 C 255.551 233.983,254.806 235.338,254.251 236.472 C 253.149 238.722,252.057 240.080,250.404 241.255 C 249.815 241.673,248.970 242.361,248.526 242.784 C 247.667 243.602,243.200 245.992,242.458 246.031 C 241.951 246.057,238.103 250.895,237.348 252.454 C 237.072 253.024,236.183 254.245,235.373 255.167 C 234.563 256.090,233.729 257.443,233.520 258.175 C 232.748 260.878,232.376 262.599,232.121 264.639 C 231.978 265.789,231.602 267.671,231.286 268.821 C 230.258 272.569,230.094 274.584,230.066 283.856 C 230.047 290.184,230.224 294.397,230.641 297.544 C 232.182 309.161,230.623 313.501,224.346 315.069 L 222.624 315.499 224.042 315.544 C 225.640 315.595,228.543 313.903,230.764 311.627 L 232.060 310.299 231.656 301.252 C 231.049 287.657,231.561 269.925,232.675 265.970 C 232.852 265.342,233.222 263.546,233.497 261.978 C 233.911 259.623,234.234 258.863,235.358 257.606 C 236.107 256.769,237.164 255.485,237.708 254.753 C 238.252 254.021,239.074 252.994,239.534 252.471 C 239.995 251.949,240.591 250.997,240.859 250.356 C 241.127 249.715,242.096 248.607,243.012 247.894 C 243.928 247.181,244.762 246.500,244.867 246.382 C 244.971 246.263,245.816 245.921,246.743 245.623 C 250.291 244.479,256.043 237.904,257.382 233.460 C 258.616 229.368,258.833 228.552,259.253 226.426 C 259.460 225.380,259.800 223.926,260.010 223.194 C 261.501 217.983,261.646 217.142,261.516 214.449 C 261.304 210.019,260.051 208.227,256.192 206.831 C 255.415 206.550,254.303 205.908,253.720 205.404 C 252.346 204.214,250.098 203.207,247.719 202.715 C 242.885 201.716,241.660 201.520,240.180 201.513 C 239.307 201.509,237.224 201.245,235.551 200.926 C 230.516 199.967,227.060 199.658,221.863 199.706 L 216.920 199.751 222.814 200.036 M273.176 217.526 C 272.841 218.173,272.635 218.769,272.718 218.852 C 272.800 218.934,273.152 218.405,273.500 217.676 C 274.282 216.036,274.011 215.911,273.176 217.526 M333.849 217.734 C 333.844 217.972,334.177 218.571,334.588 219.064 C 335.561 220.232,335.573 219.494,334.601 218.251 C 334.192 217.728,333.853 217.495,333.849 217.734 M270.515 226.028 C 270.370 226.998,270.336 227.877,270.441 227.982 C 270.545 228.086,270.750 227.378,270.895 226.409 C 271.041 225.439,271.074 224.560,270.970 224.455 C 270.865 224.350,270.660 225.058,270.515 226.028 M308.365 227.924 C 308.365 228.045,308.878 228.681,309.506 229.337 C 310.295 230.164,310.646 230.346,310.646 229.930 C 310.646 229.600,310.133 228.964,309.506 228.517 C 308.878 228.070,308.365 227.804,308.365 227.924 M338.403 228.805 C 338.403 228.963,338.560 229.638,338.751 230.305 C 339.077 231.443,339.264 238.593,339.181 246.733 C 339.139 250.800,340.727 253.232,343.423 253.232 C 343.610 253.232,344.471 253.574,345.337 253.992 C 346.203 254.411,347.052 254.753,347.224 254.753 C 347.821 254.753,351.145 256.440,351.878 257.116 C 352.283 257.489,352.741 257.795,352.895 257.795 C 353.248 257.795,354.754 261.026,357.061 266.730 C 359.652 273.139,360.013 278.151,359.592 301.906 C 359.385 313.545,359.384 313.555,357.416 320.722 C 355.408 328.032,353.084 331.601,349.240 333.279 C 341.779 336.535,344.168 336.280,320.913 336.297 C 309.515 336.305,296.683 336.250,292.395 336.175 C 287.836 336.095,283.259 336.219,281.369 336.474 C 278.699 336.834,277.443 336.804,274.144 336.303 C 271.949 335.970,268.869 335.537,267.300 335.341 C 259.418 334.353,255.110 332.048,253.152 327.770 C 252.527 326.403,251.684 324.601,251.280 323.764 C 249.609 320.307,249.493 318.691,249.402 297.719 C 249.301 274.201,249.697 268.457,251.692 264.449 C 252.317 263.194,252.833 261.951,252.840 261.687 C 252.846 261.423,253.003 260.909,253.188 260.546 C 253.372 260.183,253.721 259.458,253.963 258.935 C 254.615 257.527,258.193 255.293,261.217 254.406 C 262.158 254.130,263.424 253.753,264.030 253.568 C 264.636 253.383,265.444 253.232,265.825 253.232 C 269.669 253.232,272.401 249.363,271.506 245.187 C 271.284 244.154,271.103 242.231,271.103 240.913 C 271.103 239.596,270.974 237.166,270.817 235.514 L 270.532 232.510 270.342 236.882 C 270.065 243.266,268.172 246.983,264.163 249.014 C 263.170 249.518,262.357 250.074,262.357 250.250 C 262.357 250.426,260.907 250.570,259.133 250.570 C 254.016 250.570,251.790 252.133,250.363 256.726 C 250.213 257.209,249.799 258.032,249.444 258.555 C 248.647 259.727,246.383 265.371,246.386 266.180 C 246.387 266.505,245.952 267.645,245.420 268.714 C 243.605 272.355,242.770 278.743,243.398 284.181 C 243.666 286.503,243.921 290.884,243.964 293.916 C 244.186 309.477,245.010 321.149,246.029 323.194 C 246.186 323.508,246.524 324.534,246.781 325.475 C 248.783 332.815,252.625 338.023,256.037 338.023 C 256.341 338.023,256.648 338.159,256.717 338.326 C 257.051 339.123,260.626 340.227,264.259 340.655 C 268.216 341.121,270.994 341.605,273.194 342.212 C 276.772 343.198,278.924 343.335,281.944 342.767 C 288.032 341.622,289.977 341.466,293.408 341.850 C 298.155 342.381,324.886 343.027,334.411 342.841 C 343.944 342.655,348.183 341.611,350.951 338.769 C 351.264 338.447,352.520 337.677,353.741 337.058 C 356.026 335.899,361.597 330.502,361.597 329.447 C 361.597 329.157,362.046 327.930,362.594 326.722 C 365.077 321.250,365.343 317.971,365.374 292.367 C 365.405 267.071,365.583 268.705,362.056 261.787 C 358.644 255.093,352.888 250.648,347.529 250.569 C 346.506 250.554,345.758 250.157,344.297 248.853 C 343.251 247.919,342.267 247.154,342.110 247.152 C 341.953 247.150,341.821 246.678,341.816 246.103 C 341.811 245.528,341.384 242.918,340.867 240.304 C 340.350 237.690,339.926 234.837,339.925 233.964 C 339.924 232.017,339.148 228.517,338.718 228.517 C 338.545 228.517,338.403 228.647,338.403 228.805 M310.696 236.179 C 310.643 242.761,310.673 242.656,308.204 244.948 C 305.237 247.703,300.659 247.715,298.318 244.975 C 295.796 242.023,294.472 234.653,296.161 232.965 C 296.390 232.735,296.578 232.285,296.578 231.965 C 296.578 231.054,294.833 233.851,294.154 235.848 C 293.686 237.229,293.600 238.424,293.784 241.018 C 293.930 243.077,293.865 244.847,293.617 245.557 C 291.839 250.658,299.562 253.569,309.315 251.474 C 311.619 250.979,313.483 247.369,312.595 245.120 C 312.334 244.458,311.952 241.350,311.747 238.213 C 311.226 230.247,310.752 229.330,310.696 236.179 M58.369 242.272 C 58.229 242.758,57.761 243.926,57.330 244.867 C 55.474 248.922,55.686 302.473,57.582 308.447 C 59.836 315.549,62.881 317.820,67.871 316.120 C 69.134 315.690,82.316 315.599,145.627 315.582 C 204.573 315.567,221.691 315.460,221.103 315.112 C 220.203 314.578,226.555 314.624,138.333 314.521 C 75.830 314.448,69.468 314.496,67.815 315.057 C 63.540 316.509,59.808 314.216,58.571 309.377 C 57.048 303.421,56.231 247.776,57.641 245.971 C 58.175 245.286,59.106 241.869,58.832 241.595 C 58.718 241.481,58.510 241.785,58.369 242.272 " stroke="none" fill="#cdedc1" fill-rule="evenodd"></path></g></svg>